<svg xmlns="http://www.w3.org/2000/svg" width="460" height="80" fill="none" viewBox="0 0 460 80">
    <circle cx="33.3333" cy="36.4103" r="33.3333" fill="#4EA2C3"/>
    <path fill="#63B345" d="M25.641 11.2821C25.641 16.9465 21.0491 21.5385 15.3846 21.5385C9.72016 21.5385 5.12821 16.9465 5.12821 11.2821C5.12821 5.61759 9.72016 1.02564 15.3846 1.02564C21.0491 1.02564 25.641 5.61759 25.641 11.2821Z"/>
    <path fill="white" fill-rule="evenodd" d="M26.6667 11.2821C26.6667 17.513 21.6155 22.5641 15.3846 22.5641C9.15371 22.5641 4.10256 17.513 4.10256 11.2821C4.10256 5.05115 9.15371 0 15.3846 0C21.6155 0 26.6667 5.05115 26.6667 11.2821ZM15.3846 21.5385C21.0491 21.5385 25.641 16.9465 25.641 11.2821C25.641 5.61759 21.0491 1.02564 15.3846 1.02564C9.72016 1.02564 5.12821 5.61759 5.12821 11.2821C5.12821 16.9465 9.72016 21.5385 15.3846 21.5385Z" clip-rule="evenodd"/>
    <path fill="#63B345" d="M41.0256 64.6154C41.0256 72.5456 34.5969 78.9744 26.6667 78.9744C18.7364 78.9744 12.3077 72.5456 12.3077 64.6154C12.3077 56.6851 18.7364 50.2564 26.6667 50.2564C34.5969 50.2564 41.0256 56.6851 41.0256 64.6154Z"/>
    <path fill="white" fill-rule="evenodd" d="M42.0513 64.6154C42.0513 73.1121 35.1634 80 26.6667 80C18.17 80 11.2821 73.1121 11.2821 64.6154C11.2821 56.1187 18.17 49.2308 26.6667 49.2308C35.1634 49.2308 42.0513 56.1187 42.0513 64.6154ZM26.6667 78.9744C34.5969 78.9744 41.0256 72.5456 41.0256 64.6154C41.0256 56.6851 34.5969 50.2564 26.6667 50.2564C18.7364 50.2564 12.3077 56.6851 12.3077 64.6154C12.3077 72.5456 18.7364 78.9744 26.6667 78.9744Z" clip-rule="evenodd"/>
    <path fill="#63B345" d="M68.718 28.7179C68.718 38.3475 60.9116 46.1538 51.2821 46.1538C41.6525 46.1538 33.8462 38.3475 33.8462 28.7179C33.8462 19.0884 41.6525 11.2821 51.2821 11.2821C60.9116 11.2821 68.718 19.0884 68.718 28.7179Z"/>
    <path fill="white" fill-rule="evenodd" d="M69.7436 28.7179C69.7436 38.914 61.4781 47.1795 51.2821 47.1795C41.086 47.1795 32.8205 38.914 32.8205 28.7179C32.8205 18.5219 41.086 10.2564 51.2821 10.2564C61.4781 10.2564 69.7436 18.5219 69.7436 28.7179ZM51.2821 46.1538C60.9116 46.1538 68.7179 38.3475 68.7179 28.7179C68.7179 19.0884 60.9116 11.2821 51.2821 11.2821C41.6525 11.2821 33.8462 19.0884 33.8462 28.7179C33.8462 38.3475 41.6525 46.1538 51.2821 46.1538Z" clip-rule="evenodd"/>
    <circle cx="11.7949" cy="26.1538" r="2.5641" fill="white"/>
    <circle cx="30.2564" cy="8.71795" r="2.5641" fill="white"/>
    <circle cx="36.4103" cy="11.7949" r="2.5641" fill="white"/>
    <circle cx="12.8205" cy="33.3333" r="2.5641" fill="white"/>
    <circle cx="14.8462" cy="40.5128" r="2.5641" fill="white"/>
    <circle cx="17.9487" cy="47.6923" r="2.5641" fill="white"/>
    <circle cx="45.641" cy="56.9231" r="2.5641" fill="white"/>
    <circle cx="50.7692" cy="51.7949" r="2.5641" fill="white"/>
    <path fill="black" d="M89.9205 7.36363C92.1477 7.36363 93.9091 8.01136 95.2046 9.30682C96.5 10.6023 97.1477 12.4659 97.1477 14.8977V25.2954H95.4432V15.0341C95.4432 13.0341 94.9318 11.5114 93.9091 10.4659C92.9091 9.42045 91.5 8.89772 89.6818 8.89772C87.5909 8.89772 85.9432 9.52272 84.7387 10.7727C83.5341 12.0227 82.9318 13.7045 82.9318 15.8182V25.2954H81.2273V7.5H82.8637V11.3523C83.4773 10.1023 84.3864 9.125 85.5909 8.42045C86.8182 7.71591 88.2614 7.36363 89.9205 7.36363Z"/>
    <path fill="black" d="M119.233 16.8068H103.926C103.971 18.1932 104.324 19.4318 104.983 20.5227C105.642 21.5909 106.528 22.4204 107.642 23.0114C108.778 23.6023 110.051 23.8977 111.46 23.8977C112.619 23.8977 113.687 23.6932 114.665 23.2841C115.665 22.8523 116.494 22.2273 117.153 21.4091L118.142 22.5341C117.369 23.4659 116.392 24.1818 115.21 24.6818C114.051 25.1818 112.79 25.4318 111.426 25.4318C109.653 25.4318 108.074 25.0454 106.687 24.2727C105.301 23.5 104.21 22.4318 103.415 21.0682C102.642 19.7045 102.256 18.1477 102.256 16.3977C102.256 14.6704 102.619 13.125 103.346 11.7614C104.096 10.375 105.119 9.29545 106.415 8.52272C107.71 7.75 109.165 7.36363 110.778 7.36363C112.392 7.36363 113.835 7.75 115.108 8.52272C116.403 9.27272 117.415 10.3295 118.142 11.6932C118.892 13.0568 119.267 14.6023 119.267 16.3295L119.233 16.8068ZM110.778 8.86363C109.528 8.86363 108.403 9.14772 107.403 9.71591C106.403 10.2614 105.596 11.0455 104.983 12.0682C104.392 13.0682 104.051 14.2045 103.96 15.4773H117.596C117.528 14.2045 117.187 13.0682 116.574 12.0682C115.96 11.0682 115.153 10.2841 114.153 9.71591C113.153 9.14772 112.028 8.86363 110.778 8.86363Z"/>
    <path fill="black" d="M131.495 25.4318C129.813 25.4318 128.29 25.0454 126.926 24.2727C125.585 23.5 124.529 22.4318 123.756 21.0682C122.983 19.6818 122.597 18.125 122.597 16.3977C122.597 14.6704 122.983 13.125 123.756 11.7614C124.529 10.375 125.585 9.29545 126.926 8.52272C128.29 7.75 129.813 7.36363 131.495 7.36363C133.176 7.36363 134.688 7.75 136.029 8.52272C137.392 9.29545 138.46 10.375 139.233 11.7614C140.006 13.125 140.392 14.6704 140.392 16.3977C140.392 18.125 140.006 19.6818 139.233 21.0682C138.46 22.4318 137.392 23.5 136.029 24.2727C134.688 25.0454 133.176 25.4318 131.495 25.4318ZM131.495 23.8977C132.858 23.8977 134.074 23.5795 135.142 22.9432C136.233 22.3068 137.085 21.4204 137.699 20.2841C138.335 19.1477 138.654 17.8523 138.654 16.3977C138.654 14.9432 138.335 13.6477 137.699 12.5114C137.085 11.375 136.233 10.4886 135.142 9.85227C134.074 9.21591 132.858 8.89772 131.495 8.89772C130.131 8.89772 128.904 9.21591 127.813 9.85227C126.745 10.4886 125.892 11.375 125.256 12.5114C124.642 13.6477 124.335 14.9432 124.335 16.3977C124.335 17.8523 124.642 19.1477 125.256 20.2841C125.892 21.4204 126.745 22.3068 127.813 22.9432C128.904 23.5795 130.131 23.8977 131.495 23.8977Z"/>
    <path fill="black" d="M163.851 18.6818H158.839V25.2954H157.135V18.6818H143.533V17.4204L156.487 1.43182H158.43L145.714 17.1477H157.169V11.3182H158.839V17.1477H163.851V18.6818Z"/>
    <path fill="black" d="M165.054 32.0454C164.304 32.0454 163.611 31.9432 162.975 31.7386C162.316 31.5341 161.781 31.2386 161.372 30.8523L162.054 29.5909C162.781 30.25 163.747 30.5795 164.952 30.5795C165.997 30.5795 166.793 30.2727 167.338 29.6591C167.884 29.0454 168.156 28.1591 168.156 27V7.5H169.861V27.0682C169.861 28.5909 169.441 29.7954 168.6 30.6818C167.759 31.5909 166.577 32.0454 165.054 32.0454ZM169.009 3.17045C168.622 3.17045 168.293 3.04545 168.02 2.79545C167.747 2.52273 167.611 2.19318 167.611 1.80682C167.611 1.42045 167.747 1.09091 168.02 0.818181C168.293 0.545455 168.622 0.409092 169.009 0.409092C169.395 0.409092 169.725 0.545455 169.997 0.818181C170.27 1.06818 170.406 1.38636 170.406 1.77273C170.406 2.15909 170.27 2.48864 169.997 2.76136C169.725 3.03409 169.395 3.17045 169.009 3.17045Z"/>
    <path fill="black" d="M185.797 0H187.502V25.2954H185.797V0Z"/>
    <path fill="black" d="M200.686 7.36363C202.891 7.36363 204.584 7.93182 205.766 9.06818C206.947 10.1818 207.538 11.8295 207.538 14.0114V25.2954H205.902V22.125C205.334 23.1704 204.504 23.9886 203.413 24.5795C202.322 25.1477 201.016 25.4318 199.493 25.4318C197.516 25.4318 195.947 24.9659 194.788 24.0341C193.652 23.1023 193.084 21.875 193.084 20.3523C193.084 18.875 193.607 17.6818 194.652 16.7727C195.72 15.8409 197.413 15.375 199.732 15.375H205.834V13.9432C205.834 12.2841 205.379 11.0227 204.47 10.1591C203.584 9.29545 202.277 8.86363 200.55 8.86363C199.368 8.86363 198.232 9.06818 197.141 9.47727C196.072 9.88636 195.163 10.4318 194.413 11.1136L193.561 9.88636C194.447 9.09091 195.516 8.47727 196.766 8.04545C198.016 7.59091 199.322 7.36363 200.686 7.36363ZM199.732 24.0341C201.209 24.0341 202.459 23.6932 203.482 23.0114C204.527 22.3295 205.311 21.3409 205.834 20.0454V16.7045H199.766C198.016 16.7045 196.743 17.0227 195.947 17.6591C195.175 18.2954 194.788 19.1704 194.788 20.2841C194.788 21.4432 195.22 22.3636 196.084 23.0454C196.947 23.7045 198.163 24.0341 199.732 24.0341Z"/>
    <path fill="black" d="M223.254 7.36363C225.482 7.36363 227.243 8.01136 228.539 9.30682C229.834 10.6023 230.482 12.4659 230.482 14.8977V25.2954H228.777V15.0341C228.777 13.0341 228.266 11.5114 227.243 10.4659C226.243 9.42045 224.834 8.89772 223.016 8.89772C220.925 8.89772 219.277 9.52272 218.073 10.7727C216.868 12.0227 216.266 13.7045 216.266 15.8182V25.2954H214.561V7.5H216.198V11.3523C216.811 10.1023 217.72 9.125 218.925 8.42045C220.152 7.71591 221.595 7.36363 223.254 7.36363Z"/>
    <path fill="black" d="M253.555 7.5V23.3864C253.555 26.3409 252.84 28.5227 251.408 29.9318C249.976 31.3409 247.817 32.0454 244.93 32.0454C243.294 32.0454 241.749 31.7954 240.294 31.2954C238.84 30.7954 237.669 30.1023 236.783 29.2159L237.703 27.9204C238.59 28.7386 239.658 29.375 240.908 29.8295C242.158 30.2841 243.487 30.5114 244.896 30.5114C247.26 30.5114 249.01 29.9432 250.146 28.8068C251.283 27.6932 251.851 25.9545 251.851 23.5909V20.5909C251.124 21.8864 250.112 22.8864 248.817 23.5909C247.521 24.2954 246.067 24.6477 244.453 24.6477C242.794 24.6477 241.283 24.2841 239.919 23.5568C238.578 22.8068 237.521 21.7727 236.749 20.4545C235.976 19.1364 235.59 17.6477 235.59 15.9886C235.59 14.3295 235.976 12.8409 236.749 11.5227C237.521 10.2045 238.578 9.18182 239.919 8.45454C241.283 7.72727 242.794 7.36363 244.453 7.36363C246.09 7.36363 247.567 7.72727 248.885 8.45454C250.203 9.18182 251.215 10.2045 251.919 11.5227V7.5H253.555ZM244.59 23.1136C245.976 23.1136 247.226 22.8182 248.34 22.2273C249.453 21.6136 250.317 20.7727 250.93 19.7045C251.567 18.6136 251.885 17.375 251.885 15.9886C251.885 14.6023 251.567 13.375 250.93 12.3068C250.317 11.2386 249.453 10.4091 248.34 9.81818C247.226 9.20454 245.976 8.89772 244.59 8.89772C243.203 8.89772 241.953 9.20454 240.84 9.81818C239.749 10.4091 238.885 11.2386 238.249 12.3068C237.635 13.375 237.328 14.6023 237.328 15.9886C237.328 17.375 237.635 18.6136 238.249 19.7045C238.885 20.7727 239.749 21.6136 240.84 22.2273C241.953 22.8182 243.203 23.1136 244.59 23.1136Z"/>
    <path fill="black" d="M276.35 7.5V25.2954H274.714V21.4773C274.123 22.7273 273.248 23.7045 272.089 24.4091C270.93 25.0909 269.566 25.4318 267.998 25.4318C265.68 25.4318 263.861 24.7841 262.543 23.4886C261.225 22.1932 260.566 20.3295 260.566 17.8977V7.5H262.27V17.7614C262.27 19.7614 262.782 21.2841 263.805 22.3295C264.827 23.375 266.27 23.8977 268.134 23.8977C270.134 23.8977 271.714 23.2727 272.873 22.0227C274.055 20.7727 274.645 19.0909 274.645 16.9773V7.5H276.35Z"/>
    <path fill="black" d="M289.575 7.36363C291.78 7.36363 293.473 7.93182 294.655 9.06818C295.837 10.1818 296.428 11.8295 296.428 14.0114V25.2954H294.791V22.125C294.223 23.1704 293.394 23.9886 292.303 24.5795C291.212 25.1477 289.905 25.4318 288.382 25.4318C286.405 25.4318 284.837 24.9659 283.678 24.0341C282.541 23.1023 281.973 21.875 281.973 20.3523C281.973 18.875 282.496 17.6818 283.541 16.7727C284.609 15.8409 286.303 15.375 288.621 15.375H294.723V13.9432C294.723 12.2841 294.269 11.0227 293.359 10.1591C292.473 9.29545 291.166 8.86363 289.439 8.86363C288.257 8.86363 287.121 9.06818 286.03 9.47727C284.962 9.88636 284.053 10.4318 283.303 11.1136L282.45 9.88636C283.337 9.09091 284.405 8.47727 285.655 8.04545C286.905 7.59091 288.212 7.36363 289.575 7.36363ZM288.621 24.0341C290.098 24.0341 291.348 23.6932 292.371 23.0114C293.416 22.3295 294.2 21.3409 294.723 20.0454V16.7045H288.655C286.905 16.7045 285.632 17.0227 284.837 17.6591C284.064 18.2954 283.678 19.1704 283.678 20.2841C283.678 21.4432 284.109 22.3636 284.973 23.0454C285.837 23.7045 287.053 24.0341 288.621 24.0341Z"/>
    <path fill="black" d="M319.507 7.5V23.3864C319.507 26.3409 318.791 28.5227 317.359 29.9318C315.927 31.3409 313.768 32.0454 310.882 32.0454C309.245 32.0454 307.7 31.7954 306.245 31.2954C304.791 30.7954 303.62 30.1023 302.734 29.2159L303.654 27.9204C304.541 28.7386 305.609 29.375 306.859 29.8295C308.109 30.2841 309.438 30.5114 310.848 30.5114C313.211 30.5114 314.961 29.9432 316.098 28.8068C317.234 27.6932 317.802 25.9545 317.802 23.5909V20.5909C317.075 21.8864 316.063 22.8864 314.768 23.5909C313.473 24.2954 312.018 24.6477 310.404 24.6477C308.745 24.6477 307.234 24.2841 305.87 23.5568C304.529 22.8068 303.473 21.7727 302.7 20.4545C301.927 19.1364 301.541 17.6477 301.541 15.9886C301.541 14.3295 301.927 12.8409 302.7 11.5227C303.473 10.2045 304.529 9.18182 305.87 8.45454C307.234 7.72727 308.745 7.36363 310.404 7.36363C312.041 7.36363 313.518 7.72727 314.836 8.45454C316.154 9.18182 317.166 10.2045 317.87 11.5227V7.5H319.507ZM310.541 23.1136C311.927 23.1136 313.177 22.8182 314.291 22.2273C315.404 21.6136 316.268 20.7727 316.882 19.7045C317.518 18.6136 317.836 17.375 317.836 15.9886C317.836 14.6023 317.518 13.375 316.882 12.3068C316.268 11.2386 315.404 10.4091 314.291 9.81818C313.177 9.20454 311.927 8.89772 310.541 8.89772C309.154 8.89772 307.904 9.20454 306.791 9.81818C305.7 10.4091 304.836 11.2386 304.2 12.3068C303.586 13.375 303.279 14.6023 303.279 15.9886C303.279 17.375 303.586 18.6136 304.2 19.7045C304.836 20.7727 305.7 21.6136 306.791 22.2273C307.904 22.8182 309.154 23.1136 310.541 23.1136Z"/>
    <path fill="black" d="M341.756 16.8068H326.449C326.494 18.1932 326.847 19.4318 327.506 20.5227C328.165 21.5909 329.051 22.4204 330.165 23.0114C331.301 23.6023 332.574 23.8977 333.983 23.8977C335.142 23.8977 336.21 23.6932 337.188 23.2841C338.188 22.8523 339.017 22.2273 339.676 21.4091L340.665 22.5341C339.892 23.4659 338.915 24.1818 337.733 24.6818C336.574 25.1818 335.313 25.4318 333.949 25.4318C332.176 25.4318 330.597 25.0454 329.21 24.2727C327.824 23.5 326.733 22.4318 325.938 21.0682C325.165 19.7045 324.778 18.1477 324.778 16.3977C324.778 14.6704 325.142 13.125 325.869 11.7614C326.619 10.375 327.642 9.29545 328.938 8.52272C330.233 7.75 331.688 7.36363 333.301 7.36363C334.915 7.36363 336.358 7.75 337.631 8.52272C338.926 9.27272 339.938 10.3295 340.665 11.6932C341.415 13.0568 341.79 14.6023 341.79 16.3295L341.756 16.8068ZM333.301 8.86363C332.051 8.86363 330.926 9.14772 329.926 9.71591C328.926 10.2614 328.119 11.0455 327.506 12.0682C326.915 13.0682 326.574 14.2045 326.483 15.4773H340.119C340.051 14.2045 339.71 13.0682 339.097 12.0682C338.483 11.0682 337.676 10.2841 336.676 9.71591C335.676 9.14772 334.551 8.86363 333.301 8.86363Z"/>
    <path fill="black" d="M360.319 25.4318C358.887 25.4318 357.523 25.2159 356.228 24.7841C354.932 24.3523 353.921 23.8068 353.194 23.1477L353.978 21.7841C354.705 22.3977 355.637 22.9091 356.773 23.3182C357.932 23.7273 359.137 23.9318 360.387 23.9318C362.182 23.9318 363.501 23.6364 364.342 23.0454C365.205 22.4545 365.637 21.6364 365.637 20.5909C365.637 19.8409 365.398 19.25 364.921 18.8182C364.466 18.3864 363.898 18.0682 363.217 17.8636C362.535 17.6591 361.591 17.4432 360.387 17.2159C358.978 16.9659 357.842 16.6932 356.978 16.3977C356.114 16.1023 355.376 15.625 354.762 14.9659C354.148 14.3068 353.841 13.3977 353.841 12.2386C353.841 10.8295 354.421 9.67045 355.58 8.76136C356.762 7.82954 358.432 7.36363 360.592 7.36363C361.728 7.36363 362.853 7.52273 363.967 7.84091C365.08 8.15909 365.989 8.57954 366.694 9.10227L365.91 10.4659C365.182 9.94318 364.353 9.54545 363.421 9.27272C362.489 9 361.535 8.86363 360.557 8.86363C358.898 8.86363 357.648 9.17045 356.807 9.78409C355.967 10.3977 355.546 11.2045 355.546 12.2045C355.546 13 355.785 13.625 356.262 14.0795C356.739 14.5114 357.319 14.8409 358.001 15.0682C358.705 15.2727 359.682 15.5 360.932 15.75C362.319 16 363.432 16.2727 364.273 16.5682C365.137 16.8409 365.864 17.2954 366.455 17.9318C367.046 18.5682 367.342 19.4432 367.342 20.5568C367.342 22.0341 366.728 23.2159 365.501 24.1023C364.273 24.9886 362.546 25.4318 360.319 25.4318Z"/>
    <path fill="black" d="M386.05 7.5L376.913 27.7159C376.232 29.2841 375.436 30.3977 374.527 31.0568C373.641 31.7159 372.584 32.0454 371.357 32.0454C370.538 32.0454 369.766 31.9091 369.038 31.6364C368.334 31.3636 367.732 30.9659 367.232 30.4432L368.084 29.1477C368.993 30.0795 370.095 30.5454 371.391 30.5454C372.254 30.5454 372.993 30.3068 373.606 29.8295C374.22 29.3523 374.788 28.5341 375.311 27.375L376.266 25.2273L368.254 7.5H370.061L377.186 23.4204L384.311 7.5H386.05Z"/>
    <path fill="black" d="M398.47 7.36363C400.697 7.36363 402.458 8.01136 403.754 9.30682C405.049 10.6023 405.697 12.4659 405.697 14.8977V25.2954H403.992V15.0341C403.992 13.0341 403.481 11.5114 402.458 10.4659C401.458 9.42045 400.049 8.89772 398.231 8.89772C396.14 8.89772 394.492 9.52272 393.288 10.7727C392.083 12.0227 391.481 13.7045 391.481 15.8182V25.2954H389.777V7.5H391.413V11.3523C392.027 10.1023 392.936 9.125 394.14 8.42045C395.367 7.71591 396.811 7.36363 398.47 7.36363Z"/>
    <path fill="black" d="M421.544 24.1704C421.112 24.5795 420.567 24.8977 419.908 25.125C419.271 25.3295 418.601 25.4318 417.896 25.4318C416.351 25.4318 415.158 25.0114 414.317 24.1704C413.476 23.3068 413.056 22.1136 413.056 20.5909V8.96591H409.783V7.5H413.056V3.61364H414.76V7.5H420.419V8.96591H414.76V20.4204C414.76 21.5795 415.033 22.4659 415.578 23.0795C416.146 23.6704 416.976 23.9659 418.067 23.9659C419.181 23.9659 420.101 23.6364 420.828 22.9773L421.544 24.1704Z"/>
    <path fill="black" d="M432.298 7.36363C434.502 7.36363 436.195 7.93182 437.377 9.06818C438.559 10.1818 439.15 11.8295 439.15 14.0114V25.2954H437.514V22.125C436.945 23.1704 436.116 23.9886 435.025 24.5795C433.934 25.1477 432.627 25.4318 431.105 25.4318C429.127 25.4318 427.559 24.9659 426.4 24.0341C425.264 23.1023 424.695 21.875 424.695 20.3523C424.695 18.875 425.218 17.6818 426.264 16.7727C427.332 15.8409 429.025 15.375 431.343 15.375H437.445V13.9432C437.445 12.2841 436.991 11.0227 436.082 10.1591C435.195 9.29545 433.889 8.86363 432.161 8.86363C430.98 8.86363 429.843 9.06818 428.752 9.47727C427.684 9.88636 426.775 10.4318 426.025 11.1136L425.173 9.88636C426.059 9.09091 427.127 8.47727 428.377 8.04545C429.627 7.59091 430.934 7.36363 432.298 7.36363ZM431.343 24.0341C432.82 24.0341 434.07 23.6932 435.093 23.0114C436.139 22.3295 436.923 21.3409 437.445 20.0454V16.7045H431.377C429.627 16.7045 428.355 17.0227 427.559 17.6591C426.786 18.2954 426.4 19.1704 426.4 20.2841C426.4 21.4432 426.832 22.3636 427.695 23.0454C428.559 23.7045 429.775 24.0341 431.343 24.0341Z"/>
    <path fill="black" d="M457.491 25.2954L451.389 17.3523L445.287 25.2954H443.343L450.4 16.125L443.718 7.5H445.662L451.389 14.8977L457.116 7.5H459.025L452.343 16.125L459.503 25.2954H457.491Z"/>
    <path fill="#660000" d="M87.7727 47.1364C88.7273 47.1364 89.6023 47.2386 90.3977 47.4432C91.1932 47.625 91.8068 47.8068 92.2386 47.9886L91.25 52.0455C90.7955 51.8409 90.2955 51.6932 89.75 51.6023C89.2273 51.4886 88.7386 51.4318 88.2841 51.4318C87.6705 51.4318 87.1477 51.5227 86.7159 51.7046C86.3068 51.8636 85.9773 52.0909 85.7273 52.3864C85.5 52.6818 85.3295 53.0341 85.2159 53.4432C85.125 53.8523 85.0795 54.2955 85.0795 54.7727V55.6591H91.3523V59.8864H85.0795V73.5909H80V54.7046C80 52.3864 80.6477 50.5455 81.9432 49.1818C83.2614 47.8182 85.2045 47.1364 87.7727 47.1364Z"/>
    <path fill="#660000" d="M110.888 64.5909C110.888 66 110.684 67.2955 110.275 68.4773C109.866 69.6364 109.275 70.6364 108.502 71.4773C107.729 72.2955 106.798 72.9318 105.707 73.3864C104.638 73.8409 103.434 74.0682 102.093 74.0682C100.775 74.0682 99.5703 73.8409 98.4794 73.3864C97.4112 72.9318 96.4908 72.2955 95.718 71.4773C94.9453 70.6364 94.343 69.6364 93.9112 68.4773C93.4794 67.2955 93.2635 66 93.2635 64.5909C93.2635 63.1818 93.4794 61.8977 93.9112 60.7386C94.3658 59.5796 94.9794 58.5909 95.7521 57.7727C96.5476 56.9546 97.4794 56.3182 98.5476 55.8636C99.6385 55.4091 100.82 55.1818 102.093 55.1818C103.388 55.1818 104.57 55.4091 105.638 55.8636C106.729 56.3182 107.661 56.9546 108.434 57.7727C109.207 58.5909 109.809 59.5796 110.241 60.7386C110.673 61.8977 110.888 63.1818 110.888 64.5909ZM105.707 64.5909C105.707 63.0227 105.388 61.7955 104.752 60.9091C104.138 60 103.252 59.5455 102.093 59.5455C100.934 59.5455 100.036 60 99.3999 60.9091C98.7635 61.7955 98.4453 63.0227 98.4453 64.5909C98.4453 66.1591 98.7635 67.4091 99.3999 68.3409C100.036 69.25 100.934 69.7045 102.093 69.7045C103.252 69.7045 104.138 69.25 104.752 68.3409C105.388 67.4091 105.707 66.1591 105.707 64.5909Z"/>
    <path fill="#660000" d="M125.63 60.1591C125.176 60.0455 124.641 59.9318 124.028 59.8182C123.414 59.6818 122.755 59.6136 122.051 59.6136C121.732 59.6136 121.346 59.6477 120.891 59.7159C120.46 59.7614 120.13 59.8182 119.903 59.8864V73.5909H114.823V56.6136C115.732 56.2955 116.801 56 118.028 55.7273C119.278 55.4318 120.664 55.2841 122.187 55.2841C122.46 55.2841 122.789 55.3068 123.176 55.3523C123.562 55.375 123.948 55.4205 124.335 55.4886C124.721 55.5341 125.107 55.6023 125.494 55.6932C125.88 55.7614 126.21 55.8523 126.482 55.9659L125.63 60.1591Z"/>
    <path fill="#660000" d="M137.395 73.5909V47.9546L142.475 47.1364V55.7273C142.816 55.6136 143.247 55.5114 143.77 55.4205C144.316 55.3068 144.838 55.25 145.338 55.25C146.793 55.25 147.997 55.4546 148.952 55.8636C149.929 56.25 150.702 56.8068 151.27 57.5341C151.861 58.2614 152.27 59.125 152.497 60.125C152.747 61.125 152.872 62.2386 152.872 63.4659V73.5909H147.793V64.0796C147.793 62.4432 147.577 61.2841 147.145 60.6023C146.736 59.9205 145.963 59.5796 144.827 59.5796C144.372 59.5796 143.941 59.625 143.532 59.7159C143.145 59.7841 142.793 59.8636 142.475 59.9546V73.5909H137.395Z"/>
    <path fill="#660000" d="M162.55 73.5909H157.47V55.6591H162.55V73.5909ZM163.027 50.4773C163.027 51.4091 162.72 52.1477 162.107 52.6932C161.516 53.2159 160.811 53.4773 159.993 53.4773C159.175 53.4773 158.459 53.2159 157.845 52.6932C157.254 52.1477 156.959 51.4091 156.959 50.4773C156.959 49.5455 157.254 48.8182 157.845 48.2955C158.459 47.75 159.175 47.4773 159.993 47.4773C160.811 47.4773 161.516 47.75 162.107 48.2955C162.72 48.8182 163.027 49.5455 163.027 50.4773Z"/>
    <path fill="#660000" d="M171.654 64.0455C171.654 66.8864 172.802 68.3068 175.097 68.3068C175.62 68.3068 176.109 68.2386 176.563 68.1023C177.018 67.9659 177.404 67.8068 177.722 67.625V59.5114C177.472 59.4659 177.177 59.4318 176.836 59.4091C176.495 59.3636 176.097 59.3409 175.643 59.3409C174.302 59.3409 173.302 59.7841 172.643 60.6705C171.984 61.5568 171.654 62.6818 171.654 64.0455ZM182.802 71.3409C182.802 74.2727 182.052 76.4432 180.552 77.8523C179.075 79.2841 176.779 80 173.666 80C172.575 80 171.484 79.8977 170.393 79.6932C169.302 79.5114 168.291 79.2614 167.359 78.9432L168.245 74.6818C169.041 75 169.87 75.25 170.734 75.4318C171.62 75.6136 172.62 75.7045 173.734 75.7045C175.188 75.7045 176.211 75.3864 176.802 74.75C177.416 74.1136 177.722 73.2955 177.722 72.2955V71.6477C177.177 71.8977 176.609 72.0909 176.018 72.2273C175.45 72.3409 174.825 72.3977 174.143 72.3977C171.666 72.3977 169.768 71.6705 168.45 70.2159C167.131 68.7386 166.472 66.6818 166.472 64.0455C166.472 62.7273 166.677 61.5341 167.086 60.4659C167.495 59.375 168.086 58.4432 168.859 57.6705C169.654 56.8977 170.62 56.3068 171.756 55.8977C172.893 55.4659 174.177 55.25 175.609 55.25C176.222 55.25 176.847 55.2841 177.484 55.3523C178.143 55.3977 178.791 55.4659 179.427 55.5568C180.063 55.6477 180.666 55.7614 181.234 55.8977C181.825 56.0114 182.347 56.1364 182.802 56.2727V71.3409Z"/>
    <path fill="#660000" d="M187.566 73.5909V47.9546L192.646 47.1364V55.7273C192.987 55.6136 193.418 55.5114 193.941 55.4205C194.487 55.3068 195.009 55.25 195.509 55.25C196.964 55.25 198.168 55.4546 199.123 55.8636C200.1 56.25 200.873 56.8068 201.441 57.5341C202.032 58.2614 202.441 59.125 202.668 60.125C202.918 61.125 203.043 62.2386 203.043 63.4659V73.5909H197.964V64.0796C197.964 62.4432 197.748 61.2841 197.316 60.6023C196.907 59.9205 196.134 59.5796 194.998 59.5796C194.543 59.5796 194.112 59.625 193.702 59.7159C193.316 59.7841 192.964 59.8636 192.646 59.9546V73.5909H187.566Z"/>
    <path fill="#660000" d="M214.8 73.9318C213.323 73.9091 212.118 73.75 211.187 73.4545C210.277 73.1591 209.55 72.75 209.005 72.2273C208.482 71.6818 208.118 71.0341 207.914 70.2841C207.732 69.5114 207.641 68.6477 207.641 67.6932V47.9546L212.721 47.1364V66.6705C212.721 67.125 212.755 67.5341 212.823 67.8977C212.891 68.2614 213.016 68.5682 213.198 68.8182C213.402 69.0682 213.687 69.2727 214.05 69.4318C214.414 69.5909 214.902 69.6932 215.516 69.7386L214.8 73.9318Z"/>
    <path fill="#660000" d="M223.507 73.5909H218.428V55.6591H223.507V73.5909ZM223.985 50.4773C223.985 51.4091 223.678 52.1477 223.064 52.6932C222.473 53.2159 221.769 53.4773 220.95 53.4773C220.132 53.4773 219.416 53.2159 218.803 52.6932C218.212 52.1477 217.916 51.4091 217.916 50.4773C217.916 49.5455 218.212 48.8182 218.803 48.2955C219.416 47.75 220.132 47.4773 220.95 47.4773C221.769 47.4773 222.473 47.75 223.064 48.2955C223.678 48.8182 223.985 49.5455 223.985 50.4773Z"/>
    <path fill="#660000" d="M232.612 64.0455C232.612 66.8864 233.759 68.3068 236.055 68.3068C236.578 68.3068 237.066 68.2386 237.521 68.1023C237.975 67.9659 238.362 67.8068 238.68 67.625V59.5114C238.43 59.4659 238.134 59.4318 237.793 59.4091C237.453 59.3636 237.055 59.3409 236.6 59.3409C235.259 59.3409 234.259 59.7841 233.6 60.6705C232.941 61.5568 232.612 62.6818 232.612 64.0455ZM243.759 71.3409C243.759 74.2727 243.009 76.4432 241.509 77.8523C240.032 79.2841 237.737 80 234.623 80C233.532 80 232.441 79.8977 231.35 79.6932C230.259 79.5114 229.248 79.2614 228.316 78.9432L229.203 74.6818C229.998 75 230.828 75.25 231.691 75.4318C232.578 75.6136 233.578 75.7045 234.691 75.7045C236.146 75.7045 237.168 75.3864 237.759 74.75C238.373 74.1136 238.68 73.2955 238.68 72.2955V71.6477C238.134 71.8977 237.566 72.0909 236.975 72.2273C236.407 72.3409 235.782 72.3977 235.1 72.3977C232.623 72.3977 230.725 71.6705 229.407 70.2159C228.089 68.7386 227.43 66.6818 227.43 64.0455C227.43 62.7273 227.634 61.5341 228.043 60.4659C228.453 59.375 229.043 58.4432 229.816 57.6705C230.612 56.8977 231.578 56.3068 232.714 55.8977C233.85 55.4659 235.134 55.25 236.566 55.25C237.18 55.25 237.805 55.2841 238.441 55.3523C239.1 55.3977 239.748 55.4659 240.384 55.5568C241.021 55.6477 241.623 55.7614 242.191 55.8977C242.782 56.0114 243.305 56.1364 243.759 56.2727V71.3409Z"/>
    <path fill="#660000" d="M248.524 73.5909V47.9546L253.603 47.1364V55.7273C253.944 55.6136 254.376 55.5114 254.899 55.4205C255.444 55.3068 255.967 55.25 256.467 55.25C257.921 55.25 259.126 55.4546 260.08 55.8636C261.058 56.25 261.83 56.8068 262.399 57.5341C262.989 58.2614 263.399 59.125 263.626 60.125C263.876 61.125 264.001 62.2386 264.001 63.4659V73.5909H258.921V64.0796C258.921 62.4432 258.705 61.2841 258.274 60.6023C257.864 59.9205 257.092 59.5796 255.955 59.5796C255.501 59.5796 255.069 59.625 254.66 59.7159C254.274 59.7841 253.921 59.8636 253.603 59.9546V73.5909H248.524Z"/>
    <path fill="#660000" d="M268.428 51.1932L273.508 50.375V55.6591H279.61V59.8864H273.508V66.1932C273.508 67.2614 273.689 68.1136 274.053 68.75C274.439 69.3864 275.201 69.7045 276.337 69.7045C276.883 69.7045 277.439 69.6591 278.008 69.5682C278.599 69.4545 279.133 69.3068 279.61 69.125L280.326 73.0795C279.712 73.3295 279.03 73.5455 278.28 73.7273C277.53 73.9091 276.61 74 275.519 74C274.133 74 272.985 73.8182 272.076 73.4545C271.167 73.0682 270.439 72.5455 269.894 71.8864C269.349 71.2045 268.962 70.3864 268.735 69.4318C268.53 68.4773 268.428 67.4205 268.428 66.2614V51.1932Z"/>
    <path fill="#660000" d="M282.076 79.8977C281.758 79.8977 281.292 79.8636 280.678 79.7955C280.042 79.7273 279.451 79.6023 278.905 79.4205L279.587 75.2955C279.928 75.4091 280.246 75.4886 280.542 75.5341C280.815 75.5795 281.167 75.6023 281.599 75.6023C282.394 75.6023 282.951 75.3636 283.269 74.8864C283.587 74.4091 283.746 73.7159 283.746 72.8068V55.6591H288.826V72.9432C288.826 75.3068 288.246 77.0568 287.087 78.1932C285.928 79.3295 284.258 79.8977 282.076 79.8977ZM289.303 50.4773C289.303 51.4091 288.996 52.1477 288.383 52.6932C287.792 53.2159 287.087 53.4773 286.269 53.4773C285.451 53.4773 284.735 53.2159 284.121 52.6932C283.53 52.1477 283.235 51.4091 283.235 50.4773C283.235 49.5455 283.53 48.8182 284.121 48.2955C284.735 47.75 285.451 47.4773 286.269 47.4773C287.087 47.4773 287.792 47.75 288.383 48.2955C288.996 48.8182 289.303 49.5455 289.303 50.4773Z"/>
    <path fill="#660000" d="M298.749 69.9432C299.68 69.9432 300.339 69.8523 300.726 69.6705C301.112 69.4886 301.305 69.1364 301.305 68.6136C301.305 68.2045 301.055 67.8523 300.555 67.5568C300.055 67.2386 299.294 66.8864 298.271 66.5C297.476 66.2045 296.749 65.8977 296.089 65.5796C295.453 65.2614 294.908 64.8864 294.453 64.4546C293.999 64 293.646 63.4659 293.396 62.8523C293.146 62.2386 293.021 61.5 293.021 60.6364C293.021 58.9546 293.646 57.625 294.896 56.6477C296.146 55.6705 297.862 55.1818 300.044 55.1818C301.135 55.1818 302.18 55.2841 303.18 55.4886C304.18 55.6705 304.976 55.875 305.567 56.1023L304.68 60.0568C304.089 59.8523 303.442 59.6705 302.737 59.5114C302.055 59.3523 301.283 59.2727 300.419 59.2727C298.828 59.2727 298.033 59.7159 298.033 60.6023C298.033 60.8068 298.067 60.9886 298.135 61.1477C298.203 61.3068 298.339 61.4659 298.544 61.625C298.749 61.7614 299.021 61.9205 299.362 62.1023C299.726 62.2614 300.18 62.4432 300.726 62.6477C301.839 63.0568 302.76 63.4659 303.487 63.875C304.214 64.2614 304.783 64.6932 305.192 65.1705C305.624 65.625 305.919 66.1364 306.078 66.7045C306.26 67.2727 306.351 67.9318 306.351 68.6818C306.351 70.4545 305.68 71.7955 304.339 72.7045C303.021 73.6136 301.146 74.0682 298.714 74.0682C297.124 74.0682 295.794 73.9318 294.726 73.6591C293.68 73.3864 292.953 73.1591 292.544 72.9773L293.396 68.8523C294.26 69.1932 295.146 69.4659 296.055 69.6705C296.964 69.8523 297.862 69.9432 298.749 69.9432Z"/>
</svg>
